<mxfile host="app.diagrams.net" agent="Mozilla/5.0 (Windows NT 10.0; Win64; x64) AppleWebKit/537.36 (KHTML, like Gecko) Chrome/138.0.0.0 Safari/537.36" version="28.0.6">
  <diagram name="Roomba State Machine" id="OK_khlG6Z6u9T3o2q5QI">
    <mxGraphModel dx="1384" dy="694" grid="1" gridSize="10" guides="1" tooltips="1" connect="1" arrows="1" fold="1" page="1" pageScale="1" pageWidth="2336" pageHeight="1654" math="0" shadow="0">
      <root>
        <mxCell id="0" />
        <mxCell id="1" parent="0" />
        <mxCell id="BL7QuUrs6nnwRVbNaZPF-8" style="edgeStyle=orthogonalEdgeStyle;rounded=0;orthogonalLoop=1;jettySize=auto;html=1;" edge="1" parent="1" source="BL7QuUrs6nnwRVbNaZPF-1" target="BL7QuUrs6nnwRVbNaZPF-4">
          <mxGeometry relative="1" as="geometry" />
        </mxCell>
        <mxCell id="BL7QuUrs6nnwRVbNaZPF-9" style="edgeStyle=orthogonalEdgeStyle;rounded=0;orthogonalLoop=1;jettySize=auto;html=1;entryX=0.5;entryY=0;entryDx=0;entryDy=0;" edge="1" parent="1" source="BL7QuUrs6nnwRVbNaZPF-1" target="BL7QuUrs6nnwRVbNaZPF-5">
          <mxGeometry relative="1" as="geometry" />
        </mxCell>
        <mxCell id="BL7QuUrs6nnwRVbNaZPF-1" value="&lt;font style=&quot;font-size: 16px;&quot;&gt;&lt;b&gt;Inactive&lt;/b&gt;&lt;/font&gt;" style="ellipse;whiteSpace=wrap;html=1;" vertex="1" parent="1">
          <mxGeometry x="430" y="90" width="165" height="110" as="geometry" />
        </mxCell>
        <mxCell id="BL7QuUrs6nnwRVbNaZPF-2" value="" style="endArrow=classic;html=1;rounded=0;entryX=0.5;entryY=0;entryDx=0;entryDy=0;startArrow=oval;startFill=1;" edge="1" parent="1" target="BL7QuUrs6nnwRVbNaZPF-1">
          <mxGeometry width="50" height="50" relative="1" as="geometry">
            <mxPoint x="513" y="40" as="sourcePoint" />
            <mxPoint x="570" y="-10" as="targetPoint" />
          </mxGeometry>
        </mxCell>
        <mxCell id="BL7QuUrs6nnwRVbNaZPF-7" style="edgeStyle=orthogonalEdgeStyle;rounded=0;orthogonalLoop=1;jettySize=auto;html=1;entryX=0;entryY=0.5;entryDx=0;entryDy=0;" edge="1" parent="1" source="BL7QuUrs6nnwRVbNaZPF-4" target="BL7QuUrs6nnwRVbNaZPF-5">
          <mxGeometry relative="1" as="geometry" />
        </mxCell>
        <mxCell id="BL7QuUrs6nnwRVbNaZPF-4" value="&lt;font style=&quot;font-size: 16px;&quot;&gt;&lt;b&gt;Docked&lt;/b&gt;&lt;/font&gt;" style="ellipse;whiteSpace=wrap;html=1;" vertex="1" parent="1">
          <mxGeometry x="250" y="240" width="165" height="110" as="geometry" />
        </mxCell>
        <mxCell id="BL7QuUrs6nnwRVbNaZPF-17" style="edgeStyle=orthogonalEdgeStyle;rounded=0;orthogonalLoop=1;jettySize=auto;html=1;entryX=0.5;entryY=0;entryDx=0;entryDy=0;" edge="1" parent="1" source="BL7QuUrs6nnwRVbNaZPF-5" target="BL7QuUrs6nnwRVbNaZPF-13">
          <mxGeometry relative="1" as="geometry" />
        </mxCell>
        <mxCell id="BL7QuUrs6nnwRVbNaZPF-5" value="&lt;span style=&quot;font-size: 16px;&quot;&gt;&lt;b&gt;Idle&lt;/b&gt;&lt;/span&gt;" style="ellipse;whiteSpace=wrap;html=1;" vertex="1" parent="1">
          <mxGeometry x="610" y="240" width="165" height="110" as="geometry" />
        </mxCell>
        <mxCell id="BL7QuUrs6nnwRVbNaZPF-6" value="&lt;b&gt;Battery_Full&lt;/b&gt;" style="text;html=1;align=center;verticalAlign=middle;whiteSpace=wrap;rounded=0;" vertex="1" parent="1">
          <mxGeometry x="482.5" y="260" width="60" height="30" as="geometry" />
        </mxCell>
        <mxCell id="BL7QuUrs6nnwRVbNaZPF-42" style="edgeStyle=orthogonalEdgeStyle;rounded=0;orthogonalLoop=1;jettySize=auto;html=1;entryX=0.5;entryY=1;entryDx=0;entryDy=0;curved=1;exitX=0.75;exitY=0;exitDx=0;exitDy=0;" edge="1" parent="1" source="BL7QuUrs6nnwRVbNaZPF-13" target="BL7QuUrs6nnwRVbNaZPF-41">
          <mxGeometry relative="1" as="geometry">
            <Array as="points">
              <mxPoint x="953" y="500" />
            </Array>
          </mxGeometry>
        </mxCell>
        <mxCell id="BL7QuUrs6nnwRVbNaZPF-15" value="" style="group;movable=1;resizable=1;rotatable=1;deletable=1;editable=1;locked=0;connectable=1;" vertex="1" connectable="0" parent="1">
          <mxGeometry x="50" y="500" width="920" height="520" as="geometry" />
        </mxCell>
        <mxCell id="BL7QuUrs6nnwRVbNaZPF-13" value="" style="rounded=1;whiteSpace=wrap;html=1;movable=1;resizable=1;rotatable=1;deletable=1;editable=1;locked=0;connectable=1;" vertex="1" parent="BL7QuUrs6nnwRVbNaZPF-15">
          <mxGeometry width="920" height="520" as="geometry" />
        </mxCell>
        <mxCell id="BL7QuUrs6nnwRVbNaZPF-14" value="&lt;b&gt;&lt;font style=&quot;font-size: 24px;&quot;&gt;Active (Super)&lt;/font&gt;&lt;/b&gt;" style="text;html=1;align=center;verticalAlign=middle;whiteSpace=wrap;rounded=0;" vertex="1" parent="BL7QuUrs6nnwRVbNaZPF-15">
          <mxGeometry x="45.220588235294116" y="29.090909090909093" width="165.80882352941177" height="43.63636363636364" as="geometry" />
        </mxCell>
        <mxCell id="BL7QuUrs6nnwRVbNaZPF-19" value="&lt;font style=&quot;font-size: 16px;&quot;&gt;&lt;b&gt;Executing&lt;/b&gt;&lt;/font&gt;" style="ellipse;whiteSpace=wrap;html=1;movable=1;resizable=1;rotatable=1;deletable=1;editable=1;locked=0;connectable=1;" vertex="1" parent="BL7QuUrs6nnwRVbNaZPF-15">
          <mxGeometry x="150" y="95" width="165" height="110" as="geometry" />
        </mxCell>
        <mxCell id="BL7QuUrs6nnwRVbNaZPF-35" style="edgeStyle=orthogonalEdgeStyle;rounded=0;orthogonalLoop=1;jettySize=auto;html=1;entryX=0.5;entryY=0;entryDx=0;entryDy=0;" edge="1" parent="BL7QuUrs6nnwRVbNaZPF-15" source="BL7QuUrs6nnwRVbNaZPF-21" target="BL7QuUrs6nnwRVbNaZPF-28">
          <mxGeometry relative="1" as="geometry">
            <Array as="points">
              <mxPoint x="460" y="230" />
              <mxPoint x="282" y="230" />
            </Array>
          </mxGeometry>
        </mxCell>
        <mxCell id="BL7QuUrs6nnwRVbNaZPF-36" style="edgeStyle=orthogonalEdgeStyle;rounded=0;orthogonalLoop=1;jettySize=auto;html=1;entryX=0.5;entryY=0;entryDx=0;entryDy=0;curved=1;" edge="1" parent="BL7QuUrs6nnwRVbNaZPF-15" source="BL7QuUrs6nnwRVbNaZPF-21" target="BL7QuUrs6nnwRVbNaZPF-23">
          <mxGeometry relative="1" as="geometry" />
        </mxCell>
        <mxCell id="BL7QuUrs6nnwRVbNaZPF-21" value="&lt;font style=&quot;font-size: 16px;&quot;&gt;&lt;b&gt;Following CMD&lt;/b&gt;&lt;/font&gt;" style="ellipse;whiteSpace=wrap;html=1;" vertex="1" parent="BL7QuUrs6nnwRVbNaZPF-15">
          <mxGeometry x="377.5" y="95" width="165" height="110" as="geometry" />
        </mxCell>
        <mxCell id="BL7QuUrs6nnwRVbNaZPF-22" style="edgeStyle=orthogonalEdgeStyle;rounded=0;orthogonalLoop=1;jettySize=auto;html=1;entryX=0;entryY=0.5;entryDx=0;entryDy=0;" edge="1" parent="BL7QuUrs6nnwRVbNaZPF-15" source="BL7QuUrs6nnwRVbNaZPF-19" target="BL7QuUrs6nnwRVbNaZPF-21">
          <mxGeometry relative="1" as="geometry" />
        </mxCell>
        <mxCell id="BL7QuUrs6nnwRVbNaZPF-23" value="&lt;font style=&quot;font-size: 16px;&quot;&gt;&lt;b&gt;AVOIDING OBSTACLE&lt;/b&gt;&lt;/font&gt;" style="ellipse;whiteSpace=wrap;html=1;" vertex="1" parent="BL7QuUrs6nnwRVbNaZPF-15">
          <mxGeometry x="530" y="272.45000000000005" width="165" height="110" as="geometry" />
        </mxCell>
        <mxCell id="BL7QuUrs6nnwRVbNaZPF-26" value="&lt;b&gt;AVOIDANCE&lt;/b&gt;&lt;div&gt;&lt;b&gt;COMPLETE&lt;/b&gt;&lt;/div&gt;" style="text;html=1;align=center;verticalAlign=middle;whiteSpace=wrap;rounded=0;" vertex="1" parent="BL7QuUrs6nnwRVbNaZPF-15">
          <mxGeometry x="560" y="180" width="77.5" height="50.91" as="geometry" />
        </mxCell>
        <mxCell id="BL7QuUrs6nnwRVbNaZPF-27" value="&lt;b&gt;BUMPER HIT/CLIFF DETECTED/OBSTACLE DETECTED&lt;/b&gt;" style="text;html=1;align=center;verticalAlign=middle;whiteSpace=wrap;rounded=0;" vertex="1" parent="BL7QuUrs6nnwRVbNaZPF-15">
          <mxGeometry x="460" y="240.91" width="117.5" height="50.91" as="geometry" />
        </mxCell>
        <mxCell id="BL7QuUrs6nnwRVbNaZPF-28" value="&lt;font style=&quot;font-size: 16px;&quot;&gt;&lt;b&gt;STUCK (unrecoverable or execute recovery)&lt;/b&gt;&lt;/font&gt;" style="ellipse;whiteSpace=wrap;html=1;" vertex="1" parent="BL7QuUrs6nnwRVbNaZPF-15">
          <mxGeometry x="200" y="272.45" width="165" height="110" as="geometry" />
        </mxCell>
        <mxCell id="BL7QuUrs6nnwRVbNaZPF-31" value="&lt;b&gt;Wheel Stall&lt;/b&gt;" style="text;html=1;align=center;verticalAlign=middle;whiteSpace=wrap;rounded=0;" vertex="1" parent="BL7QuUrs6nnwRVbNaZPF-15">
          <mxGeometry x="340" y="190.00000000000003" width="77.5" height="50.91" as="geometry" />
        </mxCell>
        <mxCell id="BL7QuUrs6nnwRVbNaZPF-33" value="" style="endArrow=classic;html=1;rounded=0;entryX=0;entryY=0.5;entryDx=0;entryDy=0;startArrow=oval;startFill=1;" edge="1" parent="BL7QuUrs6nnwRVbNaZPF-15" target="BL7QuUrs6nnwRVbNaZPF-19">
          <mxGeometry width="50" height="50" relative="1" as="geometry">
            <mxPoint x="40" y="150" as="sourcePoint" />
            <mxPoint x="150" y="150" as="targetPoint" />
          </mxGeometry>
        </mxCell>
        <mxCell id="BL7QuUrs6nnwRVbNaZPF-37" style="edgeStyle=orthogonalEdgeStyle;rounded=0;orthogonalLoop=1;jettySize=auto;html=1;entryX=0.678;entryY=0.983;entryDx=0;entryDy=0;entryPerimeter=0;curved=1;" edge="1" parent="BL7QuUrs6nnwRVbNaZPF-15" source="BL7QuUrs6nnwRVbNaZPF-23" target="BL7QuUrs6nnwRVbNaZPF-21">
          <mxGeometry relative="1" as="geometry">
            <Array as="points">
              <mxPoint x="612" y="220" />
              <mxPoint x="489" y="220" />
            </Array>
          </mxGeometry>
        </mxCell>
        <mxCell id="BL7QuUrs6nnwRVbNaZPF-16" style="edgeStyle=orthogonalEdgeStyle;rounded=0;orthogonalLoop=1;jettySize=auto;html=1;entryX=0.5;entryY=0;entryDx=0;entryDy=0;" edge="1" parent="1" source="BL7QuUrs6nnwRVbNaZPF-4" target="BL7QuUrs6nnwRVbNaZPF-13">
          <mxGeometry relative="1" as="geometry" />
        </mxCell>
        <mxCell id="BL7QuUrs6nnwRVbNaZPF-18" value="&lt;b&gt;CMD_MOVE&lt;/b&gt;" style="text;html=1;align=center;verticalAlign=middle;whiteSpace=wrap;rounded=0;" vertex="1" parent="1">
          <mxGeometry x="480" y="390" width="60" height="30" as="geometry" />
        </mxCell>
        <mxCell id="BL7QuUrs6nnwRVbNaZPF-39" style="edgeStyle=orthogonalEdgeStyle;rounded=0;orthogonalLoop=1;jettySize=auto;html=1;entryX=0;entryY=0;entryDx=0;entryDy=0;curved=1;" edge="1" parent="1" source="BL7QuUrs6nnwRVbNaZPF-13" target="BL7QuUrs6nnwRVbNaZPF-1">
          <mxGeometry relative="1" as="geometry">
            <Array as="points">
              <mxPoint x="120" y="106" />
            </Array>
          </mxGeometry>
        </mxCell>
        <mxCell id="BL7QuUrs6nnwRVbNaZPF-40" value="&lt;b&gt;CMD STOP&lt;/b&gt;" style="text;html=1;align=center;verticalAlign=middle;whiteSpace=wrap;rounded=0;" vertex="1" parent="1">
          <mxGeometry x="150" y="150" width="60" height="30" as="geometry" />
        </mxCell>
        <mxCell id="BL7QuUrs6nnwRVbNaZPF-43" style="edgeStyle=orthogonalEdgeStyle;rounded=0;orthogonalLoop=1;jettySize=auto;html=1;entryX=1;entryY=0;entryDx=0;entryDy=0;curved=1;" edge="1" parent="1" source="BL7QuUrs6nnwRVbNaZPF-41" target="BL7QuUrs6nnwRVbNaZPF-1">
          <mxGeometry relative="1" as="geometry">
            <Array as="points">
              <mxPoint x="953" y="100" />
              <mxPoint x="571" y="100" />
            </Array>
          </mxGeometry>
        </mxCell>
        <mxCell id="BL7QuUrs6nnwRVbNaZPF-41" value="&lt;span style=&quot;font-size: 16px;&quot;&gt;&lt;b&gt;Seeking Base&lt;/b&gt;&lt;/span&gt;" style="ellipse;whiteSpace=wrap;html=1;" vertex="1" parent="1">
          <mxGeometry x="870" y="240" width="165" height="110" as="geometry" />
        </mxCell>
        <mxCell id="BL7QuUrs6nnwRVbNaZPF-44" value="&lt;b&gt;Base Found&lt;/b&gt;" style="text;html=1;align=center;verticalAlign=middle;whiteSpace=wrap;rounded=0;" vertex="1" parent="1">
          <mxGeometry x="790" y="70" width="110" height="40" as="geometry" />
        </mxCell>
        <mxCell id="BL7QuUrs6nnwRVbNaZPF-45" value="&lt;b&gt;CMD SEEK_BASE&lt;/b&gt;" style="text;html=1;align=center;verticalAlign=middle;whiteSpace=wrap;rounded=0;" vertex="1" parent="1">
          <mxGeometry x="830" y="390" width="110" height="40" as="geometry" />
        </mxCell>
        <mxCell id="BL7QuUrs6nnwRVbNaZPF-46" value="&lt;span style=&quot;font-size: 16px;&quot;&gt;&lt;b&gt;Faulted&lt;/b&gt;&lt;/span&gt;" style="ellipse;whiteSpace=wrap;html=1;fillColor=#f8cecc;strokeColor=#b85450;" vertex="1" parent="1">
          <mxGeometry x="1160" y="240" width="165" height="110" as="geometry" />
        </mxCell>
        <mxCell id="BL7QuUrs6nnwRVbNaZPF-47" value="&lt;b&gt;Should any operation fail, the device should go into the faulted state&lt;/b&gt;" style="text;html=1;align=center;verticalAlign=middle;whiteSpace=wrap;rounded=0;" vertex="1" parent="1">
          <mxGeometry x="1152.5" y="190" width="180" height="40" as="geometry" />
        </mxCell>
      </root>
    </mxGraphModel>
  </diagram>
</mxfile>
